# Blender v3.2.1 OBJ File: 'holev2.blend'
# www.blender.org
mtllib holev2.mtl
o Cube
v -0.070000 -0.010000 -0.040000
v -0.070000 -0.010000 0.040000
v -0.070000 0.010000 -0.040000
v -0.070000 0.010000 0.040000
v 0.070000 -0.010000 -0.040000
v 0.070000 -0.010000 0.040000
v 0.070000 0.010000 -0.040000
v 0.070000 0.010000 0.040000
v -0.070000 0.000000 -0.040000
v -0.070000 -0.010000 0.000000
v -0.070000 0.000000 0.040000
v -0.070000 0.010000 0.000000
v 0.000000 0.010000 -0.040000
v 0.000000 0.010000 0.040000
v 0.070000 0.010000 0.000000
v 0.070000 0.000000 -0.040000
v 0.070000 0.000000 0.040000
v 0.070000 -0.010000 0.000000
v 0.000000 -0.010000 -0.040000
v 0.000000 -0.010000 0.040000
v 0.000000 0.000000 0.040000
v 0.000000 0.000000 -0.040000
v 0.000000 -0.010000 0.000000
v 0.070000 0.000000 0.000000
v 0.000000 0.010000 0.000000
v -0.070000 0.000000 0.000000
vt 0.125000 0.625000
vt 0.250000 0.625000
vt 0.250000 0.750000
vt 0.125000 0.750000
vt 0.375000 0.875000
vt 0.500000 0.875000
vt 0.500000 1.000000
vt 0.375000 1.000000
vt 0.375000 0.000000
vt 0.500000 0.000000
vt 0.500000 0.125000
vt 0.375000 0.125000
vt 0.125000 0.500000
vt 0.250000 0.500000
vt 0.375000 0.250000
vt 0.500000 0.250000
vt 0.500000 0.375000
vt 0.375000 0.375000
vt 0.375000 0.500000
vt 0.375000 0.625000
vt 0.500000 0.500000
vt 0.500000 0.625000
vt 0.625000 0.125000
vt 0.625000 0.250000
vt 0.750000 0.500000
vt 0.875000 0.500000
vt 0.875000 0.625000
vt 0.750000 0.625000
vt 0.625000 0.375000
vt 0.625000 0.500000
vt 0.625000 0.625000
vt 0.625000 0.750000
vt 0.500000 0.750000
vt 0.750000 0.750000
vt 0.625000 0.875000
vt 0.625000 1.000000
vt 0.875000 0.750000
vt 0.625000 0.000000
vt 0.375000 0.750000
vn 0.0000 0.0000 -1.0000
vn 0.0000 -1.0000 0.0000
vn -1.0000 0.0000 0.0000
vn 0.0000 1.0000 0.0000
vn 1.0000 0.0000 0.0000
vn 0.0000 0.0000 1.0000
g Cube_Cube_0
usemtl 0
s off
f 9/1/1 22/2/1 19/3/1 1/4/1
f 19/5/2 23/6/2 10/7/2 1/8/2
f 1/9/3 10/10/3 26/11/3 9/12/3
g Cube_Cube_3
usemtl 3
f 3/13/1 13/14/1 22/2/1 9/1/1
f 3/15/4 12/16/4 25/17/4 13/18/4
f 9/12/3 26/11/3 12/16/3 3/15/3
g Cube_Cube_2
usemtl 2
f 13/14/1 7/19/1 16/20/1 22/2/1
f 7/19/5 15/21/5 24/22/5 16/20/5
f 13/18/4 25/17/4 15/21/4 7/19/4
g Cube_Cube_6
usemtl 6
f 26/11/3 11/23/3 4/24/3 12/16/3
f 14/25/6 4/26/6 11/27/6 21/28/6
f 12/16/4 4/24/4 14/29/4 25/17/4
g Cube_Cube_7
usemtl 7
f 25/17/4 14/29/4 8/30/4 15/21/4
f 8/30/6 14/25/6 21/28/6 17/31/6
f 15/21/5 8/30/5 17/31/5 24/22/5
g Cube_Cube_5
usemtl 5
f 24/22/5 17/31/5 6/32/5 18/33/5
f 17/31/6 21/28/6 20/34/6 6/32/6
f 18/33/2 6/32/2 20/35/2 23/6/2
g Cube_Cube_4
usemtl 4
f 23/6/2 20/35/2 2/36/2 10/7/2
f 21/28/6 11/27/6 2/37/6 20/34/6
f 10/10/3 2/38/3 11/23/3 26/11/3
g Cube_Cube_1
usemtl 1
f 22/2/1 16/20/1 5/39/1 19/3/1
f 5/39/2 18/33/2 23/6/2 19/5/2
f 16/20/5 24/22/5 18/33/5 5/39/5
